<?xml version="1.0" encoding="utf-8" standalone="no"?>
<!DOCTYPE svg PUBLIC "-//W3C//DTD SVG 1.1//EN"
  "http://www.w3.org/Graphics/SVG/1.1/DTD/svg11.dtd">
<!-- Created with matplotlib (http://matplotlib.org/) -->
<svg height="432pt" version="1.1" viewBox="0 0 432 432" width="432pt" xmlns="http://www.w3.org/2000/svg" xmlns:xlink="http://www.w3.org/1999/xlink">
 <defs>
  <style type="text/css">
*{stroke-linecap:butt;stroke-linejoin:round;}
  </style>
 </defs>
 <g id="figure_1">
  <g id="patch_1">
   <path d="M 0 432 
L 432 432 
L 432 0 
L 0 0 
z
" style="fill:#ffffff;"/>
  </g>
  <g id="axes_1">
   <g id="patch_2">
    <path d="M 54 378 
L 388.8 378 
L 388.8 51.84 
L 54 51.84 
z
" style="fill:#ffffff;"/>
   </g>
   <g id="matplotlib.axis_1">
    <g id="xtick_1">
     <g id="line2d_1">
      <defs>
       <path d="M 0 0 
L 0 3.5 
" id="ma37a9566f3" style="stroke:#000000;stroke-width:0.8;"/>
      </defs>
      <g>
       <use style="stroke:#000000;stroke-width:0.8;" x="140.24599" xlink:href="#ma37a9566f3" y="378"/>
      </g>
     </g>
     <g id="text_1">
      <!-- $\mathdefault{10^{0}}$ -->
      <defs>
       <path d="M 12.40625 8.296875 
L 28.515625 8.296875 
L 28.515625 63.921875 
L 10.984375 60.40625 
L 10.984375 69.390625 
L 28.421875 72.90625 
L 38.28125 72.90625 
L 38.28125 8.296875 
L 54.390625 8.296875 
L 54.390625 0 
L 12.40625 0 
z
" id="DejaVuSans-31"/>
       <path d="M 31.78125 66.40625 
Q 24.171875 66.40625 20.328125 58.90625 
Q 16.5 51.421875 16.5 36.375 
Q 16.5 21.390625 20.328125 13.890625 
Q 24.171875 6.390625 31.78125 6.390625 
Q 39.453125 6.390625 43.28125 13.890625 
Q 47.125 21.390625 47.125 36.375 
Q 47.125 51.421875 43.28125 58.90625 
Q 39.453125 66.40625 31.78125 66.40625 
z
M 31.78125 74.21875 
Q 44.046875 74.21875 50.515625 64.515625 
Q 56.984375 54.828125 56.984375 36.375 
Q 56.984375 17.96875 50.515625 8.265625 
Q 44.046875 -1.421875 31.78125 -1.421875 
Q 19.53125 -1.421875 13.0625 8.265625 
Q 6.59375 17.96875 6.59375 36.375 
Q 6.59375 54.828125 13.0625 64.515625 
Q 19.53125 74.21875 31.78125 74.21875 
z
" id="DejaVuSans-30"/>
      </defs>
      <g transform="translate(131.44599 392.598437)scale(0.1 -0.1)">
       <use transform="translate(0 0.765625)" xlink:href="#DejaVuSans-31"/>
       <use transform="translate(63.623047 0.765625)" xlink:href="#DejaVuSans-30"/>
       <use transform="translate(128.203125 39.046875)scale(0.7)" xlink:href="#DejaVuSans-30"/>
      </g>
     </g>
    </g>
    <g id="xtick_2">
     <g id="line2d_2">
      <g>
       <use style="stroke:#000000;stroke-width:0.8;" x="240.63813" xlink:href="#ma37a9566f3" y="378"/>
      </g>
     </g>
     <g id="text_2">
      <!-- $\mathdefault{10^{1}}$ -->
      <g transform="translate(231.83813 392.598437)scale(0.1 -0.1)">
       <use transform="translate(0 0.684375)" xlink:href="#DejaVuSans-31"/>
       <use transform="translate(63.623047 0.684375)" xlink:href="#DejaVuSans-30"/>
       <use transform="translate(128.203125 38.965625)scale(0.7)" xlink:href="#DejaVuSans-31"/>
      </g>
     </g>
    </g>
    <g id="xtick_3">
     <g id="line2d_3">
      <g>
       <use style="stroke:#000000;stroke-width:0.8;" x="341.03027" xlink:href="#ma37a9566f3" y="378"/>
      </g>
     </g>
     <g id="text_3">
      <!-- $\mathdefault{10^{2}}$ -->
      <defs>
       <path d="M 19.1875 8.296875 
L 53.609375 8.296875 
L 53.609375 0 
L 7.328125 0 
L 7.328125 8.296875 
Q 12.9375 14.109375 22.625 23.890625 
Q 32.328125 33.6875 34.8125 36.53125 
Q 39.546875 41.84375 41.421875 45.53125 
Q 43.3125 49.21875 43.3125 52.78125 
Q 43.3125 58.59375 39.234375 62.25 
Q 35.15625 65.921875 28.609375 65.921875 
Q 23.96875 65.921875 18.8125 64.3125 
Q 13.671875 62.703125 7.8125 59.421875 
L 7.8125 69.390625 
Q 13.765625 71.78125 18.9375 73 
Q 24.125 74.21875 28.421875 74.21875 
Q 39.75 74.21875 46.484375 68.546875 
Q 53.21875 62.890625 53.21875 53.421875 
Q 53.21875 48.921875 51.53125 44.890625 
Q 49.859375 40.875 45.40625 35.40625 
Q 44.1875 33.984375 37.640625 27.21875 
Q 31.109375 20.453125 19.1875 8.296875 
z
" id="DejaVuSans-32"/>
      </defs>
      <g transform="translate(332.23027 392.598437)scale(0.1 -0.1)">
       <use transform="translate(0 0.765625)" xlink:href="#DejaVuSans-31"/>
       <use transform="translate(63.623047 0.765625)" xlink:href="#DejaVuSans-30"/>
       <use transform="translate(128.203125 39.046875)scale(0.7)" xlink:href="#DejaVuSans-32"/>
      </g>
     </g>
    </g>
    <g id="xtick_4">
     <g id="line2d_4">
      <defs>
       <path d="M 0 0 
L 0 2 
" id="m1e917d3db2" style="stroke:#000000;stroke-width:0.6;"/>
      </defs>
      <g>
       <use style="stroke:#000000;stroke-width:0.6;" x="70.074895" xlink:href="#m1e917d3db2" y="378"/>
      </g>
     </g>
    </g>
    <g id="xtick_5">
     <g id="line2d_5">
      <g>
       <use style="stroke:#000000;stroke-width:0.6;" x="87.753073" xlink:href="#m1e917d3db2" y="378"/>
      </g>
     </g>
    </g>
    <g id="xtick_6">
     <g id="line2d_6">
      <g>
       <use style="stroke:#000000;stroke-width:0.6;" x="100.29594" xlink:href="#m1e917d3db2" y="378"/>
      </g>
     </g>
    </g>
    <g id="xtick_7">
     <g id="line2d_7">
      <g>
       <use style="stroke:#000000;stroke-width:0.6;" x="110.024944" xlink:href="#m1e917d3db2" y="378"/>
      </g>
     </g>
    </g>
    <g id="xtick_8">
     <g id="line2d_8">
      <g>
       <use style="stroke:#000000;stroke-width:0.6;" x="117.974119" xlink:href="#m1e917d3db2" y="378"/>
      </g>
     </g>
    </g>
    <g id="xtick_9">
     <g id="line2d_9">
      <g>
       <use style="stroke:#000000;stroke-width:0.6;" x="124.69505" xlink:href="#m1e917d3db2" y="378"/>
      </g>
     </g>
    </g>
    <g id="xtick_10">
     <g id="line2d_10">
      <g>
       <use style="stroke:#000000;stroke-width:0.6;" x="130.516986" xlink:href="#m1e917d3db2" y="378"/>
      </g>
     </g>
    </g>
    <g id="xtick_11">
     <g id="line2d_11">
      <g>
       <use style="stroke:#000000;stroke-width:0.6;" x="135.652297" xlink:href="#m1e917d3db2" y="378"/>
      </g>
     </g>
    </g>
    <g id="xtick_12">
     <g id="line2d_12">
      <g>
       <use style="stroke:#000000;stroke-width:0.6;" x="170.467035" xlink:href="#m1e917d3db2" y="378"/>
      </g>
     </g>
    </g>
    <g id="xtick_13">
     <g id="line2d_13">
      <g>
       <use style="stroke:#000000;stroke-width:0.6;" x="188.145214" xlink:href="#m1e917d3db2" y="378"/>
      </g>
     </g>
    </g>
    <g id="xtick_14">
     <g id="line2d_14">
      <g>
       <use style="stroke:#000000;stroke-width:0.6;" x="200.688081" xlink:href="#m1e917d3db2" y="378"/>
      </g>
     </g>
    </g>
    <g id="xtick_15">
     <g id="line2d_15">
      <g>
       <use style="stroke:#000000;stroke-width:0.6;" x="210.417084" xlink:href="#m1e917d3db2" y="378"/>
      </g>
     </g>
    </g>
    <g id="xtick_16">
     <g id="line2d_16">
      <g>
       <use style="stroke:#000000;stroke-width:0.6;" x="218.366259" xlink:href="#m1e917d3db2" y="378"/>
      </g>
     </g>
    </g>
    <g id="xtick_17">
     <g id="line2d_17">
      <g>
       <use style="stroke:#000000;stroke-width:0.6;" x="225.087191" xlink:href="#m1e917d3db2" y="378"/>
      </g>
     </g>
    </g>
    <g id="xtick_18">
     <g id="line2d_18">
      <g>
       <use style="stroke:#000000;stroke-width:0.6;" x="230.909126" xlink:href="#m1e917d3db2" y="378"/>
      </g>
     </g>
    </g>
    <g id="xtick_19">
     <g id="line2d_19">
      <g>
       <use style="stroke:#000000;stroke-width:0.6;" x="236.044437" xlink:href="#m1e917d3db2" y="378"/>
      </g>
     </g>
    </g>
    <g id="xtick_20">
     <g id="line2d_20">
      <g>
       <use style="stroke:#000000;stroke-width:0.6;" x="270.859175" xlink:href="#m1e917d3db2" y="378"/>
      </g>
     </g>
    </g>
    <g id="xtick_21">
     <g id="line2d_21">
      <g>
       <use style="stroke:#000000;stroke-width:0.6;" x="288.537354" xlink:href="#m1e917d3db2" y="378"/>
      </g>
     </g>
    </g>
    <g id="xtick_22">
     <g id="line2d_22">
      <g>
       <use style="stroke:#000000;stroke-width:0.6;" x="301.080221" xlink:href="#m1e917d3db2" y="378"/>
      </g>
     </g>
    </g>
    <g id="xtick_23">
     <g id="line2d_23">
      <g>
       <use style="stroke:#000000;stroke-width:0.6;" x="310.809225" xlink:href="#m1e917d3db2" y="378"/>
      </g>
     </g>
    </g>
    <g id="xtick_24">
     <g id="line2d_24">
      <g>
       <use style="stroke:#000000;stroke-width:0.6;" x="318.758399" xlink:href="#m1e917d3db2" y="378"/>
      </g>
     </g>
    </g>
    <g id="xtick_25">
     <g id="line2d_25">
      <g>
       <use style="stroke:#000000;stroke-width:0.6;" x="325.479331" xlink:href="#m1e917d3db2" y="378"/>
      </g>
     </g>
    </g>
    <g id="xtick_26">
     <g id="line2d_26">
      <g>
       <use style="stroke:#000000;stroke-width:0.6;" x="331.301266" xlink:href="#m1e917d3db2" y="378"/>
      </g>
     </g>
    </g>
    <g id="xtick_27">
     <g id="line2d_27">
      <g>
       <use style="stroke:#000000;stroke-width:0.6;" x="336.436578" xlink:href="#m1e917d3db2" y="378"/>
      </g>
     </g>
    </g>
    <g id="xtick_28">
     <g id="line2d_28">
      <g>
       <use style="stroke:#000000;stroke-width:0.6;" x="371.251316" xlink:href="#m1e917d3db2" y="378"/>
      </g>
     </g>
    </g>
    <g id="xtick_29">
     <g id="line2d_29">
      <g>
       <use style="stroke:#000000;stroke-width:0.6;" x="388.929494" xlink:href="#m1e917d3db2" y="378"/>
      </g>
     </g>
    </g>
    <g id="text_4">
     <!-- Length/(km) -->
     <defs>
      <path d="M 9.8125 72.90625 
L 19.671875 72.90625 
L 19.671875 8.296875 
L 55.171875 8.296875 
L 55.171875 0 
L 9.8125 0 
z
" id="DejaVuSans-4c"/>
      <path d="M 56.203125 29.59375 
L 56.203125 25.203125 
L 14.890625 25.203125 
Q 15.484375 15.921875 20.484375 11.0625 
Q 25.484375 6.203125 34.421875 6.203125 
Q 39.59375 6.203125 44.453125 7.46875 
Q 49.3125 8.734375 54.109375 11.28125 
L 54.109375 2.78125 
Q 49.265625 0.734375 44.1875 -0.34375 
Q 39.109375 -1.421875 33.890625 -1.421875 
Q 20.796875 -1.421875 13.15625 6.1875 
Q 5.515625 13.8125 5.515625 26.8125 
Q 5.515625 40.234375 12.765625 48.109375 
Q 20.015625 56 32.328125 56 
Q 43.359375 56 49.78125 48.890625 
Q 56.203125 41.796875 56.203125 29.59375 
z
M 47.21875 32.234375 
Q 47.125 39.59375 43.09375 43.984375 
Q 39.0625 48.390625 32.421875 48.390625 
Q 24.90625 48.390625 20.390625 44.140625 
Q 15.875 39.890625 15.1875 32.171875 
z
" id="DejaVuSans-65"/>
      <path d="M 54.890625 33.015625 
L 54.890625 0 
L 45.90625 0 
L 45.90625 32.71875 
Q 45.90625 40.484375 42.875 44.328125 
Q 39.84375 48.1875 33.796875 48.1875 
Q 26.515625 48.1875 22.3125 43.546875 
Q 18.109375 38.921875 18.109375 30.90625 
L 18.109375 0 
L 9.078125 0 
L 9.078125 54.6875 
L 18.109375 54.6875 
L 18.109375 46.1875 
Q 21.34375 51.125 25.703125 53.5625 
Q 30.078125 56 35.796875 56 
Q 45.21875 56 50.046875 50.171875 
Q 54.890625 44.34375 54.890625 33.015625 
z
" id="DejaVuSans-6e"/>
      <path d="M 45.40625 27.984375 
Q 45.40625 37.75 41.375 43.109375 
Q 37.359375 48.484375 30.078125 48.484375 
Q 22.859375 48.484375 18.828125 43.109375 
Q 14.796875 37.75 14.796875 27.984375 
Q 14.796875 18.265625 18.828125 12.890625 
Q 22.859375 7.515625 30.078125 7.515625 
Q 37.359375 7.515625 41.375 12.890625 
Q 45.40625 18.265625 45.40625 27.984375 
z
M 54.390625 6.78125 
Q 54.390625 -7.171875 48.1875 -13.984375 
Q 42 -20.796875 29.203125 -20.796875 
Q 24.46875 -20.796875 20.265625 -20.09375 
Q 16.0625 -19.390625 12.109375 -17.921875 
L 12.109375 -9.1875 
Q 16.0625 -11.328125 19.921875 -12.34375 
Q 23.78125 -13.375 27.78125 -13.375 
Q 36.625 -13.375 41.015625 -8.765625 
Q 45.40625 -4.15625 45.40625 5.171875 
L 45.40625 9.625 
Q 42.625 4.78125 38.28125 2.390625 
Q 33.9375 0 27.875 0 
Q 17.828125 0 11.671875 7.65625 
Q 5.515625 15.328125 5.515625 27.984375 
Q 5.515625 40.671875 11.671875 48.328125 
Q 17.828125 56 27.875 56 
Q 33.9375 56 38.28125 53.609375 
Q 42.625 51.21875 45.40625 46.390625 
L 45.40625 54.6875 
L 54.390625 54.6875 
z
" id="DejaVuSans-67"/>
      <path d="M 18.3125 70.21875 
L 18.3125 54.6875 
L 36.8125 54.6875 
L 36.8125 47.703125 
L 18.3125 47.703125 
L 18.3125 18.015625 
Q 18.3125 11.328125 20.140625 9.421875 
Q 21.96875 7.515625 27.59375 7.515625 
L 36.8125 7.515625 
L 36.8125 0 
L 27.59375 0 
Q 17.1875 0 13.234375 3.875 
Q 9.28125 7.765625 9.28125 18.015625 
L 9.28125 47.703125 
L 2.6875 47.703125 
L 2.6875 54.6875 
L 9.28125 54.6875 
L 9.28125 70.21875 
z
" id="DejaVuSans-74"/>
      <path d="M 54.890625 33.015625 
L 54.890625 0 
L 45.90625 0 
L 45.90625 32.71875 
Q 45.90625 40.484375 42.875 44.328125 
Q 39.84375 48.1875 33.796875 48.1875 
Q 26.515625 48.1875 22.3125 43.546875 
Q 18.109375 38.921875 18.109375 30.90625 
L 18.109375 0 
L 9.078125 0 
L 9.078125 75.984375 
L 18.109375 75.984375 
L 18.109375 46.1875 
Q 21.34375 51.125 25.703125 53.5625 
Q 30.078125 56 35.796875 56 
Q 45.21875 56 50.046875 50.171875 
Q 54.890625 44.34375 54.890625 33.015625 
z
" id="DejaVuSans-68"/>
      <path d="M 25.390625 72.90625 
L 33.6875 72.90625 
L 8.296875 -9.28125 
L 0 -9.28125 
z
" id="DejaVuSans-2f"/>
      <path d="M 31 75.875 
Q 24.46875 64.65625 21.28125 53.65625 
Q 18.109375 42.671875 18.109375 31.390625 
Q 18.109375 20.125 21.3125 9.0625 
Q 24.515625 -2 31 -13.1875 
L 23.1875 -13.1875 
Q 15.875 -1.703125 12.234375 9.375 
Q 8.59375 20.453125 8.59375 31.390625 
Q 8.59375 42.28125 12.203125 53.3125 
Q 15.828125 64.359375 23.1875 75.875 
z
" id="DejaVuSans-28"/>
      <path d="M 9.078125 75.984375 
L 18.109375 75.984375 
L 18.109375 31.109375 
L 44.921875 54.6875 
L 56.390625 54.6875 
L 27.390625 29.109375 
L 57.625 0 
L 45.90625 0 
L 18.109375 26.703125 
L 18.109375 0 
L 9.078125 0 
z
" id="DejaVuSans-6b"/>
      <path d="M 52 44.1875 
Q 55.375 50.25 60.0625 53.125 
Q 64.75 56 71.09375 56 
Q 79.640625 56 84.28125 50.015625 
Q 88.921875 44.046875 88.921875 33.015625 
L 88.921875 0 
L 79.890625 0 
L 79.890625 32.71875 
Q 79.890625 40.578125 77.09375 44.375 
Q 74.3125 48.1875 68.609375 48.1875 
Q 61.625 48.1875 57.5625 43.546875 
Q 53.515625 38.921875 53.515625 30.90625 
L 53.515625 0 
L 44.484375 0 
L 44.484375 32.71875 
Q 44.484375 40.625 41.703125 44.40625 
Q 38.921875 48.1875 33.109375 48.1875 
Q 26.21875 48.1875 22.15625 43.53125 
Q 18.109375 38.875 18.109375 30.90625 
L 18.109375 0 
L 9.078125 0 
L 9.078125 54.6875 
L 18.109375 54.6875 
L 18.109375 46.1875 
Q 21.1875 51.21875 25.484375 53.609375 
Q 29.78125 56 35.6875 56 
Q 41.65625 56 45.828125 52.96875 
Q 50 49.953125 52 44.1875 
z
" id="DejaVuSans-6d"/>
      <path d="M 8.015625 75.875 
L 15.828125 75.875 
Q 23.140625 64.359375 26.78125 53.3125 
Q 30.421875 42.28125 30.421875 31.390625 
Q 30.421875 20.453125 26.78125 9.375 
Q 23.140625 -1.703125 15.828125 -13.1875 
L 8.015625 -13.1875 
Q 14.5 -2 17.703125 9.0625 
Q 20.90625 20.125 20.90625 31.390625 
Q 20.90625 42.671875 17.703125 53.65625 
Q 14.5 64.65625 8.015625 75.875 
z
" id="DejaVuSans-29"/>
     </defs>
     <g transform="translate(190.714844 406.276563)scale(0.1 -0.1)">
      <use xlink:href="#DejaVuSans-4c"/>
      <use x="55.697266" xlink:href="#DejaVuSans-65"/>
      <use x="117.220703" xlink:href="#DejaVuSans-6e"/>
      <use x="180.599609" xlink:href="#DejaVuSans-67"/>
      <use x="244.076172" xlink:href="#DejaVuSans-74"/>
      <use x="283.285156" xlink:href="#DejaVuSans-68"/>
      <use x="346.664062" xlink:href="#DejaVuSans-2f"/>
      <use x="380.355469" xlink:href="#DejaVuSans-28"/>
      <use x="419.369141" xlink:href="#DejaVuSans-6b"/>
      <use x="477.279297" xlink:href="#DejaVuSans-6d"/>
      <use x="574.691406" xlink:href="#DejaVuSans-29"/>
     </g>
    </g>
   </g>
   <g id="matplotlib.axis_2">
    <g id="ytick_1">
     <g id="line2d_30">
      <defs>
       <path d="M 0 0 
L -3.5 0 
" id="m2b6a02af84" style="stroke:#000000;stroke-width:0.8;"/>
      </defs>
      <g>
       <use style="stroke:#000000;stroke-width:0.8;" x="54" xlink:href="#m2b6a02af84" y="309.576903"/>
      </g>
     </g>
     <g id="text_5">
      <!-- $\mathdefault{10^{0}}$ -->
      <g transform="translate(29.4 313.376121)scale(0.1 -0.1)">
       <use transform="translate(0 0.765625)" xlink:href="#DejaVuSans-31"/>
       <use transform="translate(63.623047 0.765625)" xlink:href="#DejaVuSans-30"/>
       <use transform="translate(128.203125 39.046875)scale(0.7)" xlink:href="#DejaVuSans-30"/>
      </g>
     </g>
    </g>
    <g id="ytick_2">
     <g id="line2d_31">
      <g>
       <use style="stroke:#000000;stroke-width:0.8;" x="54" xlink:href="#m2b6a02af84" y="214.310601"/>
      </g>
     </g>
     <g id="text_6">
      <!-- $\mathdefault{10^{1}}$ -->
      <g transform="translate(29.4 218.10982)scale(0.1 -0.1)">
       <use transform="translate(0 0.684375)" xlink:href="#DejaVuSans-31"/>
       <use transform="translate(63.623047 0.684375)" xlink:href="#DejaVuSans-30"/>
       <use transform="translate(128.203125 38.965625)scale(0.7)" xlink:href="#DejaVuSans-31"/>
      </g>
     </g>
    </g>
    <g id="ytick_3">
     <g id="line2d_32">
      <g>
       <use style="stroke:#000000;stroke-width:0.8;" x="54" xlink:href="#m2b6a02af84" y="119.0443"/>
      </g>
     </g>
     <g id="text_7">
      <!-- $\mathdefault{10^{2}}$ -->
      <g transform="translate(29.4 122.843519)scale(0.1 -0.1)">
       <use transform="translate(0 0.765625)" xlink:href="#DejaVuSans-31"/>
       <use transform="translate(63.623047 0.765625)" xlink:href="#DejaVuSans-30"/>
       <use transform="translate(128.203125 39.046875)scale(0.7)" xlink:href="#DejaVuSans-32"/>
      </g>
     </g>
    </g>
    <g id="ytick_4">
     <g id="line2d_33">
      <defs>
       <path d="M 0 0 
L -2 0 
" id="m7c8c7766be" style="stroke:#000000;stroke-width:0.6;"/>
      </defs>
      <g>
       <use style="stroke:#000000;stroke-width:0.6;" x="54" xlink:href="#m7c8c7766be" y="376.16519"/>
      </g>
     </g>
    </g>
    <g id="ytick_5">
     <g id="line2d_34">
      <g>
       <use style="stroke:#000000;stroke-width:0.6;" x="54" xlink:href="#m7c8c7766be" y="359.389627"/>
      </g>
     </g>
    </g>
    <g id="ytick_6">
     <g id="line2d_35">
      <g>
       <use style="stroke:#000000;stroke-width:0.6;" x="54" xlink:href="#m7c8c7766be" y="347.487175"/>
      </g>
     </g>
    </g>
    <g id="ytick_7">
     <g id="line2d_36">
      <g>
       <use style="stroke:#000000;stroke-width:0.6;" x="54" xlink:href="#m7c8c7766be" y="338.254917"/>
      </g>
     </g>
    </g>
    <g id="ytick_8">
     <g id="line2d_37">
      <g>
       <use style="stroke:#000000;stroke-width:0.6;" x="54" xlink:href="#m7c8c7766be" y="330.711612"/>
      </g>
     </g>
    </g>
    <g id="ytick_9">
     <g id="line2d_38">
      <g>
       <use style="stroke:#000000;stroke-width:0.6;" x="54" xlink:href="#m7c8c7766be" y="324.333839"/>
      </g>
     </g>
    </g>
    <g id="ytick_10">
     <g id="line2d_39">
      <g>
       <use style="stroke:#000000;stroke-width:0.6;" x="54" xlink:href="#m7c8c7766be" y="318.809161"/>
      </g>
     </g>
    </g>
    <g id="ytick_11">
     <g id="line2d_40">
      <g>
       <use style="stroke:#000000;stroke-width:0.6;" x="54" xlink:href="#m7c8c7766be" y="313.936049"/>
      </g>
     </g>
    </g>
    <g id="ytick_12">
     <g id="line2d_41">
      <g>
       <use style="stroke:#000000;stroke-width:0.6;" x="54" xlink:href="#m7c8c7766be" y="280.898888"/>
      </g>
     </g>
    </g>
    <g id="ytick_13">
     <g id="line2d_42">
      <g>
       <use style="stroke:#000000;stroke-width:0.6;" x="54" xlink:href="#m7c8c7766be" y="264.123325"/>
      </g>
     </g>
    </g>
    <g id="ytick_14">
     <g id="line2d_43">
      <g>
       <use style="stroke:#000000;stroke-width:0.6;" x="54" xlink:href="#m7c8c7766be" y="252.220874"/>
      </g>
     </g>
    </g>
    <g id="ytick_15">
     <g id="line2d_44">
      <g>
       <use style="stroke:#000000;stroke-width:0.6;" x="54" xlink:href="#m7c8c7766be" y="242.988616"/>
      </g>
     </g>
    </g>
    <g id="ytick_16">
     <g id="line2d_45">
      <g>
       <use style="stroke:#000000;stroke-width:0.6;" x="54" xlink:href="#m7c8c7766be" y="235.445311"/>
      </g>
     </g>
    </g>
    <g id="ytick_17">
     <g id="line2d_46">
      <g>
       <use style="stroke:#000000;stroke-width:0.6;" x="54" xlink:href="#m7c8c7766be" y="229.067538"/>
      </g>
     </g>
    </g>
    <g id="ytick_18">
     <g id="line2d_47">
      <g>
       <use style="stroke:#000000;stroke-width:0.6;" x="54" xlink:href="#m7c8c7766be" y="223.54286"/>
      </g>
     </g>
    </g>
    <g id="ytick_19">
     <g id="line2d_48">
      <g>
       <use style="stroke:#000000;stroke-width:0.6;" x="54" xlink:href="#m7c8c7766be" y="218.669748"/>
      </g>
     </g>
    </g>
    <g id="ytick_20">
     <g id="line2d_49">
      <g>
       <use style="stroke:#000000;stroke-width:0.6;" x="54" xlink:href="#m7c8c7766be" y="185.632587"/>
      </g>
     </g>
    </g>
    <g id="ytick_21">
     <g id="line2d_50">
      <g>
       <use style="stroke:#000000;stroke-width:0.6;" x="54" xlink:href="#m7c8c7766be" y="168.857024"/>
      </g>
     </g>
    </g>
    <g id="ytick_22">
     <g id="line2d_51">
      <g>
       <use style="stroke:#000000;stroke-width:0.6;" x="54" xlink:href="#m7c8c7766be" y="156.954573"/>
      </g>
     </g>
    </g>
    <g id="ytick_23">
     <g id="line2d_52">
      <g>
       <use style="stroke:#000000;stroke-width:0.6;" x="54" xlink:href="#m7c8c7766be" y="147.722314"/>
      </g>
     </g>
    </g>
    <g id="ytick_24">
     <g id="line2d_53">
      <g>
       <use style="stroke:#000000;stroke-width:0.6;" x="54" xlink:href="#m7c8c7766be" y="140.17901"/>
      </g>
     </g>
    </g>
    <g id="ytick_25">
     <g id="line2d_54">
      <g>
       <use style="stroke:#000000;stroke-width:0.6;" x="54" xlink:href="#m7c8c7766be" y="133.801237"/>
      </g>
     </g>
    </g>
    <g id="ytick_26">
     <g id="line2d_55">
      <g>
       <use style="stroke:#000000;stroke-width:0.6;" x="54" xlink:href="#m7c8c7766be" y="128.276559"/>
      </g>
     </g>
    </g>
    <g id="ytick_27">
     <g id="line2d_56">
      <g>
       <use style="stroke:#000000;stroke-width:0.6;" x="54" xlink:href="#m7c8c7766be" y="123.403447"/>
      </g>
     </g>
    </g>
    <g id="ytick_28">
     <g id="line2d_57">
      <g>
       <use style="stroke:#000000;stroke-width:0.6;" x="54" xlink:href="#m7c8c7766be" y="90.366286"/>
      </g>
     </g>
    </g>
    <g id="ytick_29">
     <g id="line2d_58">
      <g>
       <use style="stroke:#000000;stroke-width:0.6;" x="54" xlink:href="#m7c8c7766be" y="73.590723"/>
      </g>
     </g>
    </g>
    <g id="ytick_30">
     <g id="line2d_59">
      <g>
       <use style="stroke:#000000;stroke-width:0.6;" x="54" xlink:href="#m7c8c7766be" y="61.688272"/>
      </g>
     </g>
    </g>
    <g id="ytick_31">
     <g id="line2d_60">
      <g>
       <use style="stroke:#000000;stroke-width:0.6;" x="54" xlink:href="#m7c8c7766be" y="52.456013"/>
      </g>
     </g>
    </g>
    <g id="text_8">
     <!-- Width/(km3) -->
     <defs>
      <path d="M 3.328125 72.90625 
L 13.28125 72.90625 
L 28.609375 11.28125 
L 43.890625 72.90625 
L 54.984375 72.90625 
L 70.3125 11.28125 
L 85.59375 72.90625 
L 95.609375 72.90625 
L 77.296875 0 
L 64.890625 0 
L 49.515625 63.28125 
L 33.984375 0 
L 21.578125 0 
z
" id="DejaVuSans-57"/>
      <path d="M 9.421875 54.6875 
L 18.40625 54.6875 
L 18.40625 0 
L 9.421875 0 
z
M 9.421875 75.984375 
L 18.40625 75.984375 
L 18.40625 64.59375 
L 9.421875 64.59375 
z
" id="DejaVuSans-69"/>
      <path d="M 45.40625 46.390625 
L 45.40625 75.984375 
L 54.390625 75.984375 
L 54.390625 0 
L 45.40625 0 
L 45.40625 8.203125 
Q 42.578125 3.328125 38.25 0.953125 
Q 33.9375 -1.421875 27.875 -1.421875 
Q 17.96875 -1.421875 11.734375 6.484375 
Q 5.515625 14.40625 5.515625 27.296875 
Q 5.515625 40.1875 11.734375 48.09375 
Q 17.96875 56 27.875 56 
Q 33.9375 56 38.25 53.625 
Q 42.578125 51.265625 45.40625 46.390625 
z
M 14.796875 27.296875 
Q 14.796875 17.390625 18.875 11.75 
Q 22.953125 6.109375 30.078125 6.109375 
Q 37.203125 6.109375 41.296875 11.75 
Q 45.40625 17.390625 45.40625 27.296875 
Q 45.40625 37.203125 41.296875 42.84375 
Q 37.203125 48.484375 30.078125 48.484375 
Q 22.953125 48.484375 18.875 42.84375 
Q 14.796875 37.203125 14.796875 27.296875 
z
" id="DejaVuSans-64"/>
      <path d="M 40.578125 39.3125 
Q 47.65625 37.796875 51.625 33 
Q 55.609375 28.21875 55.609375 21.1875 
Q 55.609375 10.40625 48.1875 4.484375 
Q 40.765625 -1.421875 27.09375 -1.421875 
Q 22.515625 -1.421875 17.65625 -0.515625 
Q 12.796875 0.390625 7.625 2.203125 
L 7.625 11.71875 
Q 11.71875 9.328125 16.59375 8.109375 
Q 21.484375 6.890625 26.8125 6.890625 
Q 36.078125 6.890625 40.9375 10.546875 
Q 45.796875 14.203125 45.796875 21.1875 
Q 45.796875 27.640625 41.28125 31.265625 
Q 36.765625 34.90625 28.71875 34.90625 
L 20.21875 34.90625 
L 20.21875 43.015625 
L 29.109375 43.015625 
Q 36.375 43.015625 40.234375 45.921875 
Q 44.09375 48.828125 44.09375 54.296875 
Q 44.09375 59.90625 40.109375 62.90625 
Q 36.140625 65.921875 28.71875 65.921875 
Q 24.65625 65.921875 20.015625 65.03125 
Q 15.375 64.15625 9.8125 62.3125 
L 9.8125 71.09375 
Q 15.4375 72.65625 20.34375 73.4375 
Q 25.25 74.21875 29.59375 74.21875 
Q 40.828125 74.21875 47.359375 69.109375 
Q 53.90625 64.015625 53.90625 55.328125 
Q 53.90625 49.265625 50.4375 45.09375 
Q 46.96875 40.921875 40.578125 39.3125 
z
" id="DejaVuSans-33"/>
     </defs>
     <g transform="translate(23.320312 246.087187)rotate(-90)scale(0.1 -0.1)">
      <use xlink:href="#DejaVuSans-57"/>
      <use x="98.845703" xlink:href="#DejaVuSans-69"/>
      <use x="126.628906" xlink:href="#DejaVuSans-64"/>
      <use x="190.105469" xlink:href="#DejaVuSans-74"/>
      <use x="229.314453" xlink:href="#DejaVuSans-68"/>
      <use x="292.693359" xlink:href="#DejaVuSans-2f"/>
      <use x="326.384766" xlink:href="#DejaVuSans-28"/>
      <use x="365.398438" xlink:href="#DejaVuSans-6b"/>
      <use x="423.308594" xlink:href="#DejaVuSans-6d"/>
      <use x="520.720703" xlink:href="#DejaVuSans-33"/>
      <use x="584.34375" xlink:href="#DejaVuSans-29"/>
     </g>
    </g>
   </g>
   <g id="line2d_61">
    <defs>
     <path d="M 0 3 
C 0.795609 3 1.55874 2.683901 2.12132 2.12132 
C 2.683901 1.55874 3 0.795609 3 0 
C 3 -0.795609 2.683901 -1.55874 2.12132 -2.12132 
C 1.55874 -2.683901 0.795609 -3 0 -3 
C -0.795609 -3 -1.55874 -2.683901 -2.12132 -2.12132 
C -2.683901 -1.55874 -3 -0.795609 -3 0 
C -3 0.795609 -2.683901 1.55874 -2.12132 2.12132 
C -1.55874 2.683901 -0.795609 3 0 3 
z
" id="m6b166cf573" style="stroke:#000000;"/>
    </defs>
    <g clip-path="url(#pcffa055642)">
     <use style="stroke:#000000;" x="183.412808" xlink:href="#m6b166cf573" y="358.915079"/>
     <use style="stroke:#000000;" x="140.531561" xlink:href="#m6b166cf573" y="347.293738"/>
     <use style="stroke:#000000;" x="124.218043" xlink:href="#m6b166cf573" y="337.824497"/>
     <use style="stroke:#000000;" x="108.836726" xlink:href="#m6b166cf573" y="338.254917"/>
     <use style="stroke:#000000;" x="86.930001" xlink:href="#m6b166cf573" y="331.368196"/>
     <use style="stroke:#000000;" x="69.218182" xlink:href="#m6b166cf573" y="338.254917"/>
     <use style="stroke:#000000;" x="148.455269" xlink:href="#m6b166cf573" y="338.254917"/>
     <use style="stroke:#000000;" x="140.531561" xlink:href="#m6b166cf573" y="324.481476"/>
     <use style="stroke:#000000;" x="162.904385" xlink:href="#m6b166cf573" y="331.368196"/>
     <use style="stroke:#000000;" x="200.658527" xlink:href="#m6b166cf573" y="330.937776"/>
     <use style="stroke:#000000;" x="229.090658" xlink:href="#m6b166cf573" y="314.151395"/>
     <use style="stroke:#000000;" x="186.675512" xlink:href="#m6b166cf573" y="309.416774"/>
     <use style="stroke:#000000;" x="179.684004" xlink:href="#m6b166cf573" y="309.416774"/>
     <use style="stroke:#000000;" x="183.412808" xlink:href="#m6b166cf573" y="302.530054"/>
     <use style="stroke:#000000;" x="160.573883" xlink:href="#m6b166cf573" y="318.886015"/>
     <use style="stroke:#000000;" x="147.989169" xlink:href="#m6b166cf573" y="315.873075"/>
     <use style="stroke:#000000;" x="147.523068" xlink:href="#m6b166cf573" y="308.986354"/>
     <use style="stroke:#000000;" x="133.073952" xlink:href="#m6b166cf573" y="308.986354"/>
     <use style="stroke:#000000;" x="120.489238" xlink:href="#m6b166cf573" y="308.986354"/>
     <use style="stroke:#000000;" x="130.74345" xlink:href="#m6b166cf573" y="299.086694"/>
     <use style="stroke:#000000;" x="135.404455" xlink:href="#m6b166cf573" y="293.060813"/>
     <use style="stroke:#000000;" x="140.06546" xlink:href="#m6b166cf573" y="296.504173"/>
     <use style="stroke:#000000;" x="147.523068" xlink:href="#m6b166cf573" y="292.630393"/>
     <use style="stroke:#000000;" x="152.184074" xlink:href="#m6b166cf573" y="293.491233"/>
     <use style="stroke:#000000;" x="153.116275" xlink:href="#m6b166cf573" y="296.073753"/>
     <use style="stroke:#000000;" x="140.531561" xlink:href="#m6b166cf573" y="286.174093"/>
     <use style="stroke:#000000;" x="164.302687" xlink:href="#m6b166cf573" y="293.491233"/>
     <use style="stroke:#000000;" x="163.836586" xlink:href="#m6b166cf573" y="286.174093"/>
     <use style="stroke:#000000;" x="177.819602" xlink:href="#m6b166cf573" y="293.060813"/>
     <use style="stroke:#000000;" x="188.073813" xlink:href="#m6b166cf573" y="293.491233"/>
     <use style="stroke:#000000;" x="198.794125" xlink:href="#m6b166cf573" y="302.960474"/>
     <use style="stroke:#000000;" x="214.175442" xlink:href="#m6b166cf573" y="292.630393"/>
     <use style="stroke:#000000;" x="192.734818" xlink:href="#m6b166cf573" y="280.148212"/>
     <use style="stroke:#000000;" x="202.98903" xlink:href="#m6b166cf573" y="273.261491"/>
     <use style="stroke:#000000;" x="130.277349" xlink:href="#m6b166cf573" y="273.261491"/>
     <use style="stroke:#000000;" x="165.700988" xlink:href="#m6b166cf573" y="271.109391"/>
     <use style="stroke:#000000;" x="176.4213" xlink:href="#m6b166cf573" y="271.109391"/>
     <use style="stroke:#000000;" x="179.684004" xlink:href="#m6b166cf573" y="271.109391"/>
     <use style="stroke:#000000;" x="186.209411" xlink:href="#m6b166cf573" y="268.957291"/>
     <use style="stroke:#000000;" x="182.014506" xlink:href="#m6b166cf573" y="268.957291"/>
     <use style="stroke:#000000;" x="183.412808" xlink:href="#m6b166cf573" y="264.222671"/>
     <use style="stroke:#000000;" x="175.9552" xlink:href="#m6b166cf573" y="263.792251"/>
     <use style="stroke:#000000;" x="167.565391" xlink:href="#m6b166cf573" y="263.792251"/>
     <use style="stroke:#000000;" x="168.497592" xlink:href="#m6b166cf573" y="256.47511"/>
     <use style="stroke:#000000;" x="176.4213" xlink:href="#m6b166cf573" y="255.18385"/>
     <use style="stroke:#000000;" x="179.684004" xlink:href="#m6b166cf573" y="258.19679"/>
     <use style="stroke:#000000;" x="170.361994" xlink:href="#m6b166cf573" y="248.727549"/>
     <use style="stroke:#000000;" x="175.489099" xlink:href="#m6b166cf573" y="249.157969"/>
     <use style="stroke:#000000;" x="180.616205" xlink:href="#m6b166cf573" y="249.157969"/>
     <use style="stroke:#000000;" x="181.082305" xlink:href="#m6b166cf573" y="242.271249"/>
     <use style="stroke:#000000;" x="175.489099" xlink:href="#m6b166cf573" y="242.701669"/>
     <use style="stroke:#000000;" x="164.302687" xlink:href="#m6b166cf573" y="242.271249"/>
     <use style="stroke:#000000;" x="170.361994" xlink:href="#m6b166cf573" y="235.814948"/>
     <use style="stroke:#000000;" x="179.684004" xlink:href="#m6b166cf573" y="235.384528"/>
     <use style="stroke:#000000;" x="182.014506" xlink:href="#m6b166cf573" y="230.649908"/>
     <use style="stroke:#000000;" x="187.607713" xlink:href="#m6b166cf573" y="231.080328"/>
     <use style="stroke:#000000;" x="192.268718" xlink:href="#m6b166cf573" y="235.814948"/>
     <use style="stroke:#000000;" x="193.667019" xlink:href="#m6b166cf573" y="241.840829"/>
     <use style="stroke:#000000;" x="198.328025" xlink:href="#m6b166cf573" y="251.31007"/>
     <use style="stroke:#000000;" x="202.522929" xlink:href="#m6b166cf573" y="251.74049"/>
     <use style="stroke:#000000;" x="194.13312" xlink:href="#m6b166cf573" y="256.47511"/>
     <use style="stroke:#000000;" x="193.200919" xlink:href="#m6b166cf573" y="264.222671"/>
     <use style="stroke:#000000;" x="198.328025" xlink:href="#m6b166cf573" y="263.361831"/>
     <use style="stroke:#000000;" x="209.980537" xlink:href="#m6b166cf573" y="264.653091"/>
     <use style="stroke:#000000;" x="217.904246" xlink:href="#m6b166cf573" y="264.222671"/>
     <use style="stroke:#000000;" x="217.904246" xlink:href="#m6b166cf573" y="251.74049"/>
     <use style="stroke:#000000;" x="225.361854" xlink:href="#m6b166cf573" y="242.701669"/>
     <use style="stroke:#000000;" x="227.692357" xlink:href="#m6b166cf573" y="239.688729"/>
     <use style="stroke:#000000;" x="240.277071" xlink:href="#m6b166cf573" y="251.31007"/>
     <use style="stroke:#000000;" x="229.090658" xlink:href="#m6b166cf573" y="243.562509"/>
     <use style="stroke:#000000;" x="130.74345" xlink:href="#m6b166cf573" y="251.74049"/>
     <use style="stroke:#000000;" x="158.24338" xlink:href="#m6b166cf573" y="225.915288"/>
     <use style="stroke:#000000;" x="170.828094" xlink:href="#m6b166cf573" y="219.028567"/>
     <use style="stroke:#000000;" x="170.828094" xlink:href="#m6b166cf573" y="214.724367"/>
     <use style="stroke:#000000;" x="171.294195" xlink:href="#m6b166cf573" y="206.976806"/>
     <use style="stroke:#000000;" x="192.734818" xlink:href="#m6b166cf573" y="220.319827"/>
     <use style="stroke:#000000;" x="192.734818" xlink:href="#m6b166cf573" y="225.054448"/>
     <use style="stroke:#000000;" x="211.378839" xlink:href="#m6b166cf573" y="226.345708"/>
     <use style="stroke:#000000;" x="214.175442" xlink:href="#m6b166cf573" y="225.915288"/>
     <use style="stroke:#000000;" x="223.497452" xlink:href="#m6b166cf573" y="230.219488"/>
     <use style="stroke:#000000;" x="227.692357" xlink:href="#m6b166cf573" y="224.624027"/>
     <use style="stroke:#000000;" x="232.353362" xlink:href="#m6b166cf573" y="230.219488"/>
     <use style="stroke:#000000;" x="250.997383" xlink:href="#m6b166cf573" y="230.219488"/>
     <use style="stroke:#000000;" x="257.98889" xlink:href="#m6b166cf573" y="242.701669"/>
     <use style="stroke:#000000;" x="217.438146" xlink:href="#m6b166cf573" y="217.737307"/>
     <use style="stroke:#000000;" x="225.361854" xlink:href="#m6b166cf573" y="203.533446"/>
     <use style="stroke:#000000;" x="200.658527" xlink:href="#m6b166cf573" y="206.976806"/>
     <use style="stroke:#000000;" x="232.819463" xlink:href="#m6b166cf573" y="193.203365"/>
     <use style="stroke:#000000;" x="291.548128" xlink:href="#m6b166cf573" y="176.847404"/>
     <use style="stroke:#000000;" x="214.175442" xlink:href="#m6b166cf573" y="164.365223"/>
     <use style="stroke:#000000;" x="205.319532" xlink:href="#m6b166cf573" y="164.365223"/>
     <use style="stroke:#000000;" x="221.63305" xlink:href="#m6b166cf573" y="157.478502"/>
     <use style="stroke:#000000;" x="175.022999" xlink:href="#m6b166cf573" y="163.934802"/>
     <use style="stroke:#000000;" x="245.404177" xlink:href="#m6b166cf573" y="154.895982"/>
     <use style="stroke:#000000;" x="255.192287" xlink:href="#m6b166cf573" y="139.83128"/>
     <use style="stroke:#000000;" x="281.293916" xlink:href="#m6b166cf573" y="148.009261"/>
     <use style="stroke:#000000;" x="294.344731" xlink:href="#m6b166cf573" y="135.52708"/>
     <use style="stroke:#000000;" x="256.590589" xlink:href="#m6b166cf573" y="119.171119"/>
     <use style="stroke:#000000;" x="209.980537" xlink:href="#m6b166cf573" y="125.627419"/>
     <use style="stroke:#000000;" x="279.895615" xlink:href="#m6b166cf573" y="86.889616"/>
     <use style="stroke:#000000;" x="290.149826" xlink:href="#m6b166cf573" y="92.915497"/>
     <use style="stroke:#000000;" x="310.192148" xlink:href="#m6b166cf573" y="92.915497"/>
     <use style="stroke:#000000;" x="164.768787" xlink:href="#m6b166cf573" y="215.154787"/>
     <use style="stroke:#000000;" x="194.13312" xlink:href="#m6b166cf573" y="207.407226"/>
     <use style="stroke:#000000;" x="240.743171" xlink:href="#m6b166cf573" y="185.886224"/>
     <use style="stroke:#000000;" x="349.344591" xlink:href="#m6b166cf573" y="197.937985"/>
     <use style="stroke:#000000;" x="233.751664" xlink:href="#m6b166cf573" y="139.83128"/>
     <use style="stroke:#000000;" x="275.234609" xlink:href="#m6b166cf573" y="134.23582"/>
     <use style="stroke:#000000;" x="275.234609" xlink:href="#m6b166cf573" y="114.436498"/>
     <use style="stroke:#000000;" x="147.523068" xlink:href="#m6b166cf573" y="101.954317"/>
     <use style="stroke:#000000;" x="254.260086" xlink:href="#m6b166cf573" y="104.106418"/>
     <use style="stroke:#000000;" x="255.192287" xlink:href="#m6b166cf573" y="99.371797"/>
     <use style="stroke:#000000;" x="315.319254" xlink:href="#m6b166cf573" y="109.701878"/>
     <use style="stroke:#000000;" x="314.853153" xlink:href="#m6b166cf573" y="90.763396"/>
     <use style="stroke:#000000;" x="325.107365" xlink:href="#m6b166cf573" y="92.485077"/>
     <use style="stroke:#000000;" x="373.581818" xlink:href="#m6b166cf573" y="104.106418"/>
    </g>
   </g>
   <g id="line2d_62">
    <path clip-path="url(#pcffa055642)" d="M 69.218182 363.174545 
L 373.581818 66.665455 
" style="fill:none;stroke:#0000ff;stroke-linecap:square;stroke-width:1.5;"/>
   </g>
   <g id="patch_3">
    <path d="M 54 378 
L 54 51.84 
" style="fill:none;stroke:#000000;stroke-linecap:square;stroke-linejoin:miter;stroke-width:0.8;"/>
   </g>
   <g id="patch_4">
    <path d="M 388.8 378 
L 388.8 51.84 
" style="fill:none;stroke:#000000;stroke-linecap:square;stroke-linejoin:miter;stroke-width:0.8;"/>
   </g>
   <g id="patch_5">
    <path d="M 54 378 
L 388.8 378 
" style="fill:none;stroke:#000000;stroke-linecap:square;stroke-linejoin:miter;stroke-width:0.8;"/>
   </g>
   <g id="patch_6">
    <path d="M 54 51.84 
L 388.8 51.84 
" style="fill:none;stroke:#000000;stroke-linecap:square;stroke-linejoin:miter;stroke-width:0.8;"/>
   </g>
   <g id="text_9">
    <!-- Submarine landslide dimensions -->
    <defs>
     <path d="M 53.515625 70.515625 
L 53.515625 60.890625 
Q 47.90625 63.578125 42.921875 64.890625 
Q 37.9375 66.21875 33.296875 66.21875 
Q 25.25 66.21875 20.875 63.09375 
Q 16.5 59.96875 16.5 54.203125 
Q 16.5 49.359375 19.40625 46.890625 
Q 22.3125 44.4375 30.421875 42.921875 
L 36.375 41.703125 
Q 47.40625 39.59375 52.65625 34.296875 
Q 57.90625 29 57.90625 20.125 
Q 57.90625 9.515625 50.796875 4.046875 
Q 43.703125 -1.421875 29.984375 -1.421875 
Q 24.8125 -1.421875 18.96875 -0.25 
Q 13.140625 0.921875 6.890625 3.21875 
L 6.890625 13.375 
Q 12.890625 10.015625 18.65625 8.296875 
Q 24.421875 6.59375 29.984375 6.59375 
Q 38.421875 6.59375 43.015625 9.90625 
Q 47.609375 13.234375 47.609375 19.390625 
Q 47.609375 24.75 44.3125 27.78125 
Q 41.015625 30.8125 33.5 32.328125 
L 27.484375 33.5 
Q 16.453125 35.6875 11.515625 40.375 
Q 6.59375 45.0625 6.59375 53.421875 
Q 6.59375 63.09375 13.40625 68.65625 
Q 20.21875 74.21875 32.171875 74.21875 
Q 37.3125 74.21875 42.625 73.28125 
Q 47.953125 72.359375 53.515625 70.515625 
z
" id="DejaVuSans-53"/>
     <path d="M 8.5 21.578125 
L 8.5 54.6875 
L 17.484375 54.6875 
L 17.484375 21.921875 
Q 17.484375 14.15625 20.5 10.265625 
Q 23.53125 6.390625 29.59375 6.390625 
Q 36.859375 6.390625 41.078125 11.03125 
Q 45.3125 15.671875 45.3125 23.6875 
L 45.3125 54.6875 
L 54.296875 54.6875 
L 54.296875 0 
L 45.3125 0 
L 45.3125 8.40625 
Q 42.046875 3.421875 37.71875 1 
Q 33.40625 -1.421875 27.6875 -1.421875 
Q 18.265625 -1.421875 13.375 4.4375 
Q 8.5 10.296875 8.5 21.578125 
z
M 31.109375 56 
z
" id="DejaVuSans-75"/>
     <path d="M 48.6875 27.296875 
Q 48.6875 37.203125 44.609375 42.84375 
Q 40.53125 48.484375 33.40625 48.484375 
Q 26.265625 48.484375 22.1875 42.84375 
Q 18.109375 37.203125 18.109375 27.296875 
Q 18.109375 17.390625 22.1875 11.75 
Q 26.265625 6.109375 33.40625 6.109375 
Q 40.53125 6.109375 44.609375 11.75 
Q 48.6875 17.390625 48.6875 27.296875 
z
M 18.109375 46.390625 
Q 20.953125 51.265625 25.265625 53.625 
Q 29.59375 56 35.59375 56 
Q 45.5625 56 51.78125 48.09375 
Q 58.015625 40.1875 58.015625 27.296875 
Q 58.015625 14.40625 51.78125 6.484375 
Q 45.5625 -1.421875 35.59375 -1.421875 
Q 29.59375 -1.421875 25.265625 0.953125 
Q 20.953125 3.328125 18.109375 8.203125 
L 18.109375 0 
L 9.078125 0 
L 9.078125 75.984375 
L 18.109375 75.984375 
z
" id="DejaVuSans-62"/>
     <path d="M 34.28125 27.484375 
Q 23.390625 27.484375 19.1875 25 
Q 14.984375 22.515625 14.984375 16.5 
Q 14.984375 11.71875 18.140625 8.90625 
Q 21.296875 6.109375 26.703125 6.109375 
Q 34.1875 6.109375 38.703125 11.40625 
Q 43.21875 16.703125 43.21875 25.484375 
L 43.21875 27.484375 
z
M 52.203125 31.203125 
L 52.203125 0 
L 43.21875 0 
L 43.21875 8.296875 
Q 40.140625 3.328125 35.546875 0.953125 
Q 30.953125 -1.421875 24.3125 -1.421875 
Q 15.921875 -1.421875 10.953125 3.296875 
Q 6 8.015625 6 15.921875 
Q 6 25.140625 12.171875 29.828125 
Q 18.359375 34.515625 30.609375 34.515625 
L 43.21875 34.515625 
L 43.21875 35.40625 
Q 43.21875 41.609375 39.140625 45 
Q 35.0625 48.390625 27.6875 48.390625 
Q 23 48.390625 18.546875 47.265625 
Q 14.109375 46.140625 10.015625 43.890625 
L 10.015625 52.203125 
Q 14.9375 54.109375 19.578125 55.046875 
Q 24.21875 56 28.609375 56 
Q 40.484375 56 46.34375 49.84375 
Q 52.203125 43.703125 52.203125 31.203125 
z
" id="DejaVuSans-61"/>
     <path d="M 41.109375 46.296875 
Q 39.59375 47.171875 37.8125 47.578125 
Q 36.03125 48 33.890625 48 
Q 26.265625 48 22.1875 43.046875 
Q 18.109375 38.09375 18.109375 28.8125 
L 18.109375 0 
L 9.078125 0 
L 9.078125 54.6875 
L 18.109375 54.6875 
L 18.109375 46.1875 
Q 20.953125 51.171875 25.484375 53.578125 
Q 30.03125 56 36.53125 56 
Q 37.453125 56 38.578125 55.875 
Q 39.703125 55.765625 41.0625 55.515625 
z
" id="DejaVuSans-72"/>
     <path id="DejaVuSans-20"/>
     <path d="M 9.421875 75.984375 
L 18.40625 75.984375 
L 18.40625 0 
L 9.421875 0 
z
" id="DejaVuSans-6c"/>
     <path d="M 44.28125 53.078125 
L 44.28125 44.578125 
Q 40.484375 46.53125 36.375 47.5 
Q 32.28125 48.484375 27.875 48.484375 
Q 21.1875 48.484375 17.84375 46.4375 
Q 14.5 44.390625 14.5 40.28125 
Q 14.5 37.15625 16.890625 35.375 
Q 19.28125 33.59375 26.515625 31.984375 
L 29.59375 31.296875 
Q 39.15625 29.25 43.1875 25.515625 
Q 47.21875 21.78125 47.21875 15.09375 
Q 47.21875 7.46875 41.1875 3.015625 
Q 35.15625 -1.421875 24.609375 -1.421875 
Q 20.21875 -1.421875 15.453125 -0.5625 
Q 10.6875 0.296875 5.421875 2 
L 5.421875 11.28125 
Q 10.40625 8.6875 15.234375 7.390625 
Q 20.0625 6.109375 24.8125 6.109375 
Q 31.15625 6.109375 34.5625 8.28125 
Q 37.984375 10.453125 37.984375 14.40625 
Q 37.984375 18.0625 35.515625 20.015625 
Q 33.0625 21.96875 24.703125 23.78125 
L 21.578125 24.515625 
Q 13.234375 26.265625 9.515625 29.90625 
Q 5.8125 33.546875 5.8125 39.890625 
Q 5.8125 47.609375 11.28125 51.796875 
Q 16.75 56 26.8125 56 
Q 31.78125 56 36.171875 55.265625 
Q 40.578125 54.546875 44.28125 53.078125 
z
" id="DejaVuSans-73"/>
     <path d="M 30.609375 48.390625 
Q 23.390625 48.390625 19.1875 42.75 
Q 14.984375 37.109375 14.984375 27.296875 
Q 14.984375 17.484375 19.15625 11.84375 
Q 23.34375 6.203125 30.609375 6.203125 
Q 37.796875 6.203125 41.984375 11.859375 
Q 46.1875 17.53125 46.1875 27.296875 
Q 46.1875 37.015625 41.984375 42.703125 
Q 37.796875 48.390625 30.609375 48.390625 
z
M 30.609375 56 
Q 42.328125 56 49.015625 48.375 
Q 55.71875 40.765625 55.71875 27.296875 
Q 55.71875 13.875 49.015625 6.21875 
Q 42.328125 -1.421875 30.609375 -1.421875 
Q 18.84375 -1.421875 12.171875 6.21875 
Q 5.515625 13.875 5.515625 27.296875 
Q 5.515625 40.765625 12.171875 48.375 
Q 18.84375 56 30.609375 56 
z
" id="DejaVuSans-6f"/>
    </defs>
    <g transform="translate(123.894375 45.84)scale(0.12 -0.12)">
     <use xlink:href="#DejaVuSans-53"/>
     <use x="63.476562" xlink:href="#DejaVuSans-75"/>
     <use x="126.855469" xlink:href="#DejaVuSans-62"/>
     <use x="190.332031" xlink:href="#DejaVuSans-6d"/>
     <use x="287.744141" xlink:href="#DejaVuSans-61"/>
     <use x="349.023438" xlink:href="#DejaVuSans-72"/>
     <use x="390.136719" xlink:href="#DejaVuSans-69"/>
     <use x="417.919922" xlink:href="#DejaVuSans-6e"/>
     <use x="481.298828" xlink:href="#DejaVuSans-65"/>
     <use x="542.822266" xlink:href="#DejaVuSans-20"/>
     <use x="574.609375" xlink:href="#DejaVuSans-6c"/>
     <use x="602.392578" xlink:href="#DejaVuSans-61"/>
     <use x="663.671875" xlink:href="#DejaVuSans-6e"/>
     <use x="727.050781" xlink:href="#DejaVuSans-64"/>
     <use x="790.527344" xlink:href="#DejaVuSans-73"/>
     <use x="842.626953" xlink:href="#DejaVuSans-6c"/>
     <use x="870.410156" xlink:href="#DejaVuSans-69"/>
     <use x="898.193359" xlink:href="#DejaVuSans-64"/>
     <use x="961.669922" xlink:href="#DejaVuSans-65"/>
     <use x="1023.193359" xlink:href="#DejaVuSans-20"/>
     <use x="1054.980469" xlink:href="#DejaVuSans-64"/>
     <use x="1118.457031" xlink:href="#DejaVuSans-69"/>
     <use x="1146.240234" xlink:href="#DejaVuSans-6d"/>
     <use x="1243.652344" xlink:href="#DejaVuSans-65"/>
     <use x="1305.175781" xlink:href="#DejaVuSans-6e"/>
     <use x="1368.554688" xlink:href="#DejaVuSans-73"/>
     <use x="1420.654297" xlink:href="#DejaVuSans-69"/>
     <use x="1448.4375" xlink:href="#DejaVuSans-6f"/>
     <use x="1509.619141" xlink:href="#DejaVuSans-6e"/>
     <use x="1572.998047" xlink:href="#DejaVuSans-73"/>
    </g>
   </g>
   <g id="legend_1">
    <g id="patch_7">
     <path d="M 61 89.19625 
L 180.717188 89.19625 
Q 182.717188 89.19625 182.717188 87.19625 
L 182.717188 58.84 
Q 182.717188 56.84 180.717188 56.84 
L 61 56.84 
Q 59 56.84 59 58.84 
L 59 87.19625 
Q 59 89.19625 61 89.19625 
z
" style="fill:#ffffff;opacity:0.8;stroke:#cccccc;stroke-linejoin:miter;"/>
    </g>
    <g id="line2d_63"/>
    <g id="line2d_64">
     <g>
      <use style="stroke:#000000;" x="73" xlink:href="#m6b166cf573" y="64.938437"/>
     </g>
    </g>
    <g id="text_10">
     <!-- raw data -->
     <defs>
      <path d="M 4.203125 54.6875 
L 13.1875 54.6875 
L 24.421875 12.015625 
L 35.59375 54.6875 
L 46.1875 54.6875 
L 57.421875 12.015625 
L 68.609375 54.6875 
L 77.59375 54.6875 
L 63.28125 0 
L 52.6875 0 
L 40.921875 44.828125 
L 29.109375 0 
L 18.5 0 
z
" id="DejaVuSans-77"/>
     </defs>
     <g transform="translate(91 68.438437)scale(0.1 -0.1)">
      <use xlink:href="#DejaVuSans-72"/>
      <use x="41.113281" xlink:href="#DejaVuSans-61"/>
      <use x="102.392578" xlink:href="#DejaVuSans-77"/>
      <use x="184.179688" xlink:href="#DejaVuSans-20"/>
      <use x="215.966797" xlink:href="#DejaVuSans-64"/>
      <use x="279.443359" xlink:href="#DejaVuSans-61"/>
      <use x="340.722656" xlink:href="#DejaVuSans-74"/>
      <use x="379.931641" xlink:href="#DejaVuSans-61"/>
     </g>
    </g>
    <g id="line2d_65">
     <path d="M 63 79.616562 
L 83 79.616562 
" style="fill:none;stroke:#0000ff;stroke-linecap:square;stroke-width:1.5;"/>
    </g>
    <g id="line2d_66"/>
    <g id="text_11">
     <!-- linear best fit line -->
     <defs>
      <path d="M 37.109375 75.984375 
L 37.109375 68.5 
L 28.515625 68.5 
Q 23.6875 68.5 21.796875 66.546875 
Q 19.921875 64.59375 19.921875 59.515625 
L 19.921875 54.6875 
L 34.71875 54.6875 
L 34.71875 47.703125 
L 19.921875 47.703125 
L 19.921875 0 
L 10.890625 0 
L 10.890625 47.703125 
L 2.296875 47.703125 
L 2.296875 54.6875 
L 10.890625 54.6875 
L 10.890625 58.5 
Q 10.890625 67.625 15.140625 71.796875 
Q 19.390625 75.984375 28.609375 75.984375 
z
" id="DejaVuSans-66"/>
     </defs>
     <g transform="translate(91 83.116562)scale(0.1 -0.1)">
      <use xlink:href="#DejaVuSans-6c"/>
      <use x="27.783203" xlink:href="#DejaVuSans-69"/>
      <use x="55.566406" xlink:href="#DejaVuSans-6e"/>
      <use x="118.945312" xlink:href="#DejaVuSans-65"/>
      <use x="180.46875" xlink:href="#DejaVuSans-61"/>
      <use x="241.748047" xlink:href="#DejaVuSans-72"/>
      <use x="282.861328" xlink:href="#DejaVuSans-20"/>
      <use x="314.648438" xlink:href="#DejaVuSans-62"/>
      <use x="378.125" xlink:href="#DejaVuSans-65"/>
      <use x="439.648438" xlink:href="#DejaVuSans-73"/>
      <use x="491.748047" xlink:href="#DejaVuSans-74"/>
      <use x="530.957031" xlink:href="#DejaVuSans-20"/>
      <use x="562.744141" xlink:href="#DejaVuSans-66"/>
      <use x="597.949219" xlink:href="#DejaVuSans-69"/>
      <use x="625.732422" xlink:href="#DejaVuSans-74"/>
      <use x="664.941406" xlink:href="#DejaVuSans-20"/>
      <use x="696.728516" xlink:href="#DejaVuSans-6c"/>
      <use x="724.511719" xlink:href="#DejaVuSans-69"/>
      <use x="752.294922" xlink:href="#DejaVuSans-6e"/>
      <use x="815.673828" xlink:href="#DejaVuSans-65"/>
     </g>
    </g>
   </g>
  </g>
 </g>
 <defs>
  <clipPath id="pcffa055642">
   <rect height="326.16" width="334.8" x="54" y="51.84"/>
  </clipPath>
 </defs>
</svg>
