<?xml version="1.0" encoding="UTF-8" standalone="no"?>
<!-- Generator: Adobe Illustrator 14.0.0, SVG Export Plug-In . SVG Version: 6.00 Build 43363)  -->

<svg
   xmlns:dc="http://purl.org/dc/elements/1.1/"
   xmlns:cc="http://creativecommons.org/ns#"
   xmlns:rdf="http://www.w3.org/1999/02/22-rdf-syntax-ns#"
   xmlns:svg="http://www.w3.org/2000/svg"
   xmlns="http://www.w3.org/2000/svg"
   xmlns:sodipodi="http://sodipodi.sourceforge.net/DTD/sodipodi-0.dtd"
   xmlns:inkscape="http://www.inkscape.org/namespaces/inkscape"
   version="1.1"
   id="Layer_1"
   x="0px"
   y="0px"
   width="570px"
   height="278px"
   viewBox="0 0 570 278"
   enable-background="new 0 0 570 278"
   xml:space="preserve"
   sodipodi:docname="hat-function-2d.svg"
   inkscape:version="0.92.4 (5da689c313, 2019-01-14)"><metadata
   id="metadata138"><rdf:RDF><cc:Work
       rdf:about=""><dc:format>image/svg+xml</dc:format><dc:type
         rdf:resource="http://purl.org/dc/dcmitype/StillImage" /></cc:Work></rdf:RDF></metadata><defs
   id="defs136" /><sodipodi:namedview
   pagecolor="#ffffff"
   bordercolor="#666666"
   borderopacity="1"
   objecttolerance="10"
   gridtolerance="10"
   guidetolerance="10"
   inkscape:pageopacity="0"
   inkscape:pageshadow="2"
   inkscape:window-width="1460"
   inkscape:window-height="786"
   id="namedview134"
   showgrid="false"
   inkscape:zoom="1.7466778"
   inkscape:cx="331.05257"
   inkscape:cy="230.15799"
   inkscape:window-x="0"
   inkscape:window-y="27"
   inkscape:window-maximized="0"
   inkscape:current-layer="Layer_1" />
<polygon
   opacity="0.2"
   fill="#1B1F8A"
   enable-background="new    "
   points="157.5,52.5 345.5,46 524.5,94.5 557.5,217 161,261.5   10.5,124.5 "
   id="polygon2" />
<line
   fill="none"
   stroke="#363639"
   x1="304.683"
   y1="51.438"
   x2="309.5"
   y2="47"
   id="line4" />
<line
   fill="none"
   stroke="#363639"
   x1="118.5"
   y1="223"
   x2="240.5"
   y2="111.5"
   id="line6" />
<line
   fill="none"
   stroke="#363639"
   x1="84.5"
   y1="192"
   x2="273.5"
   y2="48"
   id="line8" />
<line
   fill="none"
   stroke="#363639"
   x1="55.5"
   y1="165.5"
   x2="235.5"
   y2="49.5"
   id="line10" />
<line
   fill="none"
   stroke="#363639"
   x1="31.5"
   y1="143.5"
   x2="197"
   y2="51"
   id="line12" />
<line
   fill="none"
   stroke="#363639"
   x1="161"
   y1="261.5"
   x2="276"
   y2="127.5"
   id="line14" />
<line
   fill="none"
   stroke="#363639"
   x1="320.939"
   y1="74.654"
   x2="345.5"
   y2="46"
   id="line16" />
<line
   fill="none"
   stroke="#363639"
   x1="335"
   y1="242.5"
   x2="406"
   y2="62"
   id="line18" />
<line
   fill="none"
   stroke="#363639"
   x1="413.5"
   y1="233.5"
   x2="442"
   y2="71.5"
   id="line20" />
<line
   fill="none"
   stroke="#363639"
   x1="488.5"
   y1="226"
   x2="481"
   y2="82.5"
   id="line22" />
<line
   fill="none"
   stroke="#363639"
   x1="529"
   y1="110.5"
   x2="309.5"
   y2="47"
   id="line24" />
<line
   fill="none"
   stroke="#363639"
   x1="283.655"
   y1="51.19"
   x2="273.5"
   y2="48"
   id="line26" />
<line
   fill="none"
   stroke="#363639"
   x1="534.5"
   y1="130"
   x2="310.462"
   y2="59.612"
   id="line28" />
<line
   fill="none"
   stroke="#363639"
   x1="275.259"
   y1="62.97"
   x2="235.5"
   y2="49.5"
   id="line30" />
<line
   fill="none"
   stroke="#363639"
   x1="541"
   y1="153"
   x2="324.832"
   y2="79.765"
   id="line32" />
<line
   fill="none"
   stroke="#363639"
   x1="265.96"
   y1="76.603"
   x2="197"
   y2="51"
   id="line34" />
<line
   fill="none"
   stroke="#363639"
   x1="548.5"
   y1="181.5"
   x2="342.492"
   y2="105.016"
   id="line36" />
<line
   fill="none"
   stroke="#363639"
   x1="558"
   y1="217.5"
   x2="330.5"
   y2="123.5"
   id="line38" />
<line
   fill="none"
   stroke="#363639"
   x1="254.25"
   y1="92.535"
   x2="157.5"
   y2="52.5"
   id="line40" />
<line
   fill="none"
   stroke="#363639"
   x1="413.5"
   y1="233.5"
   x2="111"
   y2="75"
   id="line42" />
<line
   fill="none"
   stroke="#363639"
   x1="335"
   y1="242.5"
   x2="83.5"
   y2="89.5"
   id="line44" />
<line
   fill="none"
   stroke="#363639"
   x1="250.5"
   y1="252"
   x2="49.5"
   y2="105"
   id="line46" />
<line
   fill="none"
   stroke="#363639"
   x1="118.5"
   y1="223"
   x2="548.5"
   y2="181.5"
   id="line48" />
<line
   fill="none"
   stroke="#363639"
   x1="84.5"
   y1="192"
   x2="541"
   y2="153"
   id="line50" />
<line
   fill="none"
   stroke="#363639"
   x1="55.5"
   y1="165.5"
   x2="534.5"
   y2="130"
   id="line52" />
<line
   fill="none"
   stroke="#363639"
   x1="10.5"
   y1="124.5"
   x2="240.5"
   y2="111.5"
   id="line54" />
<line
   fill="none"
   stroke="#363639"
   x1="342.5"
   y1="105"
   x2="525"
   y2="94.5"
   id="line56" />
<line
   fill="none"
   stroke="#363639"
   x1="323.495"
   y1="77.45"
   x2="442"
   y2="71.5"
   id="line58" />
<line
   fill="none"
   stroke="#363639"
   x1="83.5"
   y1="89.5"
   x2="262.75"
   y2="80.5"
   id="line60" />
<line
   fill="none"
   stroke="#363639"
   x1="315"
   y1="66.01"
   x2="406"
   y2="62"
   id="line62" />
<line
   fill="none"
   stroke="#363639"
   x1="111"
   y1="75"
   x2="272.007"
   y2="67.904"
   id="line64" />
<line
   fill="none"
   stroke="#363639"
   x1="308.008"
   y1="56.148"
   x2="374.5"
   y2="53.5"
   id="line66" />
<line
   fill="none"
   stroke="#363639"
   x1="136"
   y1="63"
   x2="279.762"
   y2="57.273"
   id="line68" />
<line
   fill="none"
   stroke="#363639"
   x1="49.5"
   y1="105"
   x2="252.508"
   y2="94.826"
   id="line70" />
<line
   fill="none"
   stroke="#363639"
   x1="331.997"
   y1="90.185"
   x2="481"
   y2="82.5"
   id="line72" />
<line
   fill="none"
   stroke="#363639"
   x1="250.5"
   y1="252"
   x2="374.5"
   y2="53.5"
   id="line74" />
<line
   fill="none"
   stroke="#363639"
   x1="31.5"
   y1="143.5"
   x2="529"
   y2="110.5"
   id="line76" />
<line
   fill="none"
   stroke="#363639"
   x1="488.5"
   y1="226"
   x2="136"
   y2="63"
   id="line78" />
<line
   fill="none"
   stroke="#363639"
   stroke-dasharray="6"
   x1="294.5"
   y1="37"
   x2="306.5"
   y2="91.5"
   id="line80" />
<line
   fill="none"
   stroke="#363639"
   stroke-dasharray="6"
   x1="294.5"
   y1="37"
   x2="259"
   y2="94.5"
   id="line82" />
<line
   fill="none"
   stroke="#363639"
   stroke-dasharray="6"
   x1="240.763"
   y1="111.265"
   x2="259"
   y2="94.5"
   id="line84" />
<line
   fill="none"
   stroke="#363639"
   stroke-dasharray="6"
   x1="342.5"
   y1="105"
   x2="306.451"
   y2="91.635"
   id="line86" />
<line
   fill="none"
   stroke="#363639"
   stroke-dasharray="6"
   x1="259"
   y1="94.5"
   x2="306.451"
   y2="91.635"
   id="line88" />
<linearGradient
   id="SVGID_1_"
   gradientUnits="userSpaceOnUse"
   x1="307.9053"
   y1="50.7314"
   x2="303.9051"
   y2="116.0687">
	<stop
   offset="0"
   style="stop-color:#BBBEF2"
   id="stop90" />
	<stop
   offset="1"
   style="stop-color:#585B8B"
   id="stop92" />
</linearGradient>
<polygon
   opacity="0.6"
   fill="url(#SVGID_1_)"
   points="294.5,37.167 276.167,127.333 330.5,123.5 "
   id="polygon95" />
<linearGradient
   id="SVGID_2_"
   gradientUnits="userSpaceOnUse"
   x1="325.9219"
   y1="-41.5586"
   x2="260.4211"
   y2="114.4431">
	<stop
   offset="0"
   style="stop-color:#BBBEF2"
   id="stop97" />
	<stop
   offset="1"
   style="stop-color:#585B8B"
   id="stop99" />
</linearGradient>
<polygon
   opacity="0.6"
   fill="url(#SVGID_2_)"
   points="294.5,37 240.667,111.333 276,127.5 "
   id="polygon102" />
<linearGradient
   id="SVGID_3_"
   gradientUnits="userSpaceOnUse"
   x1="311.8027"
   y1="73.1133"
   x2="408.1373"
   y2="234.1181">
	<stop
   offset="0"
   style="stop-color:#BBBEF2"
   id="stop104" />
	<stop
   offset="1"
   style="stop-color:#585B8B"
   id="stop106" />
</linearGradient>
<polygon
   opacity="0.6"
   fill="url(#SVGID_3_)"
   points="294.667,37 330.5,123.667 342.333,104.833 "
   id="polygon109" />
<line
   fill="none"
   stroke="#363639"
   x1="294.5"
   y1="37"
   x2="330.5"
   y2="123.5"
   id="line111" />
<line
   fill="none"
   stroke="#363639"
   x1="294.5"
   y1="37"
   x2="276"
   y2="127.5"
   id="line113" />
<line
   fill="none"
   stroke="#363639"
   x1="294.5"
   y1="37"
   x2="240.5"
   y2="111.5"
   id="line115" />
<line
   fill="none"
   stroke="#363639"
   x1="294.5"
   y1="37"
   x2="342.5"
   y2="105"
   id="line117" />
<circle
   fill="#231F20"
   cx="294.667"
   cy="37"
   r="3.833"
   id="circle119" />

<text
   xml:space="preserve"
   style="font-style:normal;font-variant:normal;font-weight:normal;font-stretch:normal;font-size:42.66666794px;line-height:125%;font-family:'CMU Serif';-inkscape-font-specification:'CMU Serif';text-align:center;letter-spacing:0px;word-spacing:0px;writing-mode:lr-tb;text-anchor:middle;fill:#000000;fill-opacity:1;stroke:none;stroke-width:1px;stroke-linecap:butt;stroke-linejoin:miter;stroke-opacity:1"
   x="278.11789"
   y="18.504261"
   id="text144"><tspan
     sodipodi:role="line"
     id="tspan142"
     x="278.11789"
     y="18.504261">ğœ™<tspan
   style="font-size:65%;baseline-shift:sub"
   id="tspan148">ğ‘–</tspan></tspan></text>
</svg>